<?xml version="1.0" encoding="UTF-8"?>
<svg xmlns="http://www.w3.org/2000/svg" xmlns:xlink="http://www.w3.org/1999/xlink" width="377.05pt" height="570.49pt" viewBox="0 0 377.05 570.49" version="1.1">
<defs>
<clipPath id="clip1">
  <path d="M 0 0 L 377.050781 0 L 377.050781 570.488281 L 0 570.488281 Z M 0 0 "/>
</clipPath>
</defs>
<g id="surface1">
<path style=" stroke:none;fill-rule:nonzero;fill:rgb(93.299866%,17.599487%,17.599487%);fill-opacity:1;" d="M 188.390625 566.371094 L 188.390625 4.652344 C 188.390625 4.652344 271.160156 1.859375 318.589844 86.488281 C 366.019531 171.121094 396.558594 292.304688 348.351563 423.148438 C 296.269531 564.511719 188.390625 566.371094 188.390625 566.371094 "/>
<g clip-path="url(#clip1)" clip-rule="nonzero">
<path style=" stroke:none;fill-rule:nonzero;fill:rgb(13.699341%,12.199402%,12.5%);fill-opacity:1;" d="M 0 285.246094 C 0 442.527344 84.570313 570.488281 188.523438 570.488281 C 292.476563 570.488281 377.050781 442.527344 377.050781 285.246094 C 377.050781 127.960938 292.476563 0 188.523438 0 C 84.570313 0 0 127.960938 0 285.246094 M 9.300781 285.246094 C 9.300781 133.089844 89.699219 9.300781 188.523438 9.300781 C 287.351563 9.300781 367.75 133.089844 367.75 285.246094 C 367.75 437.402344 287.351563 561.191406 188.523438 561.191406 C 89.699219 561.191406 9.300781 437.402344 9.300781 285.246094 "/>
</g>
<path style=" stroke:none;fill-rule:nonzero;fill:rgb(93.299866%,17.599487%,17.599487%);fill-opacity:1;" d="M 62.609375 298.53125 C 62.609375 298.53125 49.042969 297.0625 37.964844 305.039063 C 32.152344 309.226563 31.585938 318.117188 34.476563 323.175781 C 37.265625 328.058594 44.242188 325.964844 49.355469 323.175781 C 54.46875 320.386719 62.144531 315.269531 62.144531 315.269531 L 62.609375 298.53125 "/>
<path style=" stroke:none;fill-rule:nonzero;fill:rgb(13.699341%,12.199402%,12.5%);fill-opacity:1;" d="M 37.148438 303.910156 C 30.765625 308.503906 29.976563 318.117188 33.265625 323.867188 C 35.902344 328.484375 42.167969 328.683594 50.023438 324.398438 C 55.132813 321.613281 62.601563 316.640625 62.917969 316.429688 L 63.519531 316.03125 L 64.039063 297.28125 L 62.757813 297.144531 C 62.183594 297.082031 48.53125 295.710938 37.148438 303.910156 M 35.6875 322.484375 C 32.996094 317.773438 33.742188 309.796875 38.777344 306.171875 C 47.441406 299.9375 57.730469 299.730469 61.175781 299.855469 C 61.113281 302.046875 60.800781 313.289063 60.769531 314.507813 C 58.925781 315.722656 52.90625 319.648438 48.6875 321.949219 C 46.308594 323.246094 38.339844 327.121094 35.6875 322.484375 "/>
<path style=" stroke:none;fill-rule:nonzero;fill:rgb(93.299866%,17.599487%,17.599487%);fill-opacity:1;" d="M 71.441406 268.769531 L 41.914063 278.769531 L 62.839844 295.972656 C 62.839844 295.972656 72.839844 295.738281 76.09375 286.90625 C 79.347656 278.070313 71.441406 268.769531 71.441406 268.769531 "/>
<path style=" stroke:none;fill-rule:nonzero;fill:rgb(13.699341%,12.199402%,12.5%);fill-opacity:1;" d="M 70.996094 267.449219 L 39.089844 278.25 L 62.355469 297.378906 L 62.871094 297.367188 C 63.320313 297.355469 73.859375 297.003906 77.402344 287.386719 C 80.898438 277.898438 72.851563 268.269531 72.503906 267.867188 L 71.890625 267.144531 L 70.996094 267.449219 M 70.945313 270.410156 C 72.246094 272.179688 75.480469 277.078125 75.480469 282.402344 C 75.480469 283.734375 75.277344 285.089844 74.785156 286.425781 C 72.261719 293.273438 65.242188 294.371094 63.300781 294.546875 C 62.5625 293.9375 47.859375 281.851563 44.738281 279.285156 C 48.621094 277.96875 69.316406 270.964844 70.945313 270.410156 "/>
<path style=" stroke:none;fill-rule:nonzero;fill:rgb(95.698547%,80.799866%,14.498901%);fill-opacity:1;" d="M 148.59375 237.460938 L 80.433594 237.460938 L 26.996094 385.019531 L 95.160156 385.019531 L 148.59375 237.460938 "/>
<path style=" stroke:none;fill-rule:nonzero;fill:rgb(13.699341%,12.199402%,12.5%);fill-opacity:1;" d="M 148.59375 236.0625 L 79.453125 236.0625 L 25.007813 386.414063 L 96.136719 386.414063 L 150.582031 236.0625 L 148.59375 236.0625 M 146.605469 238.855469 C 145.292969 242.476563 94.828125 381.832031 94.179688 383.625 C 92.335938 383.625 32.679688 383.625 28.984375 383.625 C 30.296875 380.003906 80.761719 240.648438 81.410156 238.855469 C 83.257813 238.855469 142.910156 238.855469 146.605469 238.855469 "/>
<path style=" stroke:none;fill-rule:nonzero;fill:rgb(100%,100%,100%);fill-opacity:1;" d="M 102.597656 287.949219 C 102.597656 294.820313 97.863281 300.390625 92.019531 300.390625 C 86.175781 300.390625 81.441406 294.820313 81.441406 287.949219 C 81.441406 281.082031 86.175781 275.511719 92.019531 275.511719 C 97.863281 275.511719 102.597656 281.082031 102.597656 287.949219 "/>
<path style=" stroke:none;fill-rule:nonzero;fill:rgb(13.699341%,12.199402%,12.5%);fill-opacity:1;" d="M 80.046875 287.949219 C 80.046875 295.578125 85.417969 301.785156 92.019531 301.785156 C 98.621094 301.785156 103.992188 295.578125 103.992188 287.949219 C 103.992188 280.324219 98.621094 274.117188 92.019531 274.117188 C 85.417969 274.117188 80.046875 280.324219 80.046875 287.949219 M 82.835938 287.949219 C 82.835938 281.863281 86.957031 276.90625 92.019531 276.90625 C 97.082031 276.90625 101.203125 281.863281 101.203125 287.949219 C 101.203125 294.042969 97.082031 298.996094 92.019531 298.996094 C 86.957031 298.996094 82.835938 294.042969 82.835938 287.949219 "/>
<path style=" stroke:none;fill-rule:nonzero;fill:rgb(13.699341%,12.199402%,12.5%);fill-opacity:1;" d="M 86.710938 298.53125 C 86.710938 298.53125 86.089844 296.671875 88.648438 294.578125 C 90.195313 293.3125 91.941406 290.042969 91.980469 287.371094 C 92.019531 284.675781 90.816406 282.332031 89.191406 280.703125 C 87.5625 279.078125 88.183594 276.90625 88.183594 276.90625 C 88.183594 276.90625 81.59375 278.691406 81.441406 286.90625 C 81.285156 295.121094 86.710938 298.53125 86.710938 298.53125 "/>
<path style=" stroke:none;fill-rule:nonzero;fill:rgb(93.299866%,17.599487%,17.599487%);fill-opacity:1;" d="M 118.871094 165.074219 C 118.871094 165.074219 100.039063 155.773438 70.746094 176.003906 C 49.976563 190.34375 43.078125 218.316406 47.261719 238.3125 C 50.601563 254.261719 61.34375 266.253906 82.136719 270.164063 C 105.621094 274.582031 118.871094 274.351563 132.824219 274.117188 C 145.84375 273.902344 151.507813 274.578125 157.699219 282.257813 C 163.511719 289.464844 167.234375 298.761719 167.234375 298.761719 C 167.234375 298.761719 172.921875 288.789063 168.859375 274.039063 C 165.914063 263.34375 159.328125 259.007813 159.328125 259.007813 C 159.328125 259.007813 162.503906 258.386719 170.253906 262.105469 C 175.898438 264.8125 180.253906 270.164063 180.253906 270.164063 C 180.253906 270.164063 179.699219 253.765625 171.648438 244.589844 C 161.652344 233.199219 150.957031 235.757813 150.957031 235.757813 C 150.957031 235.757813 151.558594 229.445313 160.257813 226.453125 C 167.699219 223.898438 173.046875 225.523438 173.046875 225.523438 C 173.046875 225.523438 167.839844 214.878906 153.28125 212.738281 C 137.472656 210.414063 126.078125 218.085938 126.078125 218.085938 C 126.078125 218.085938 126.542969 209.054688 135.613281 195.765625 C 145.609375 181.117188 160.722656 179.953125 160.722656 179.953125 C 160.722656 179.953125 154.464844 170.710938 139.796875 171.585938 C 120.269531 172.746094 102.132813 194.136719 102.132813 194.136719 C 102.132813 194.136719 101.027344 189.859375 106.316406 180.1875 C 113.0625 167.863281 118.871094 165.074219 118.871094 165.074219 "/>
<path style=" stroke:none;fill-rule:nonzero;fill:rgb(13.699341%,12.199402%,12.5%);fill-opacity:1;" d="M 69.953125 174.855469 C 48.503906 189.667969 41.613281 218.132813 45.898438 238.597656 C 49.628906 256.421875 62.070313 267.808594 81.878906 271.535156 C 105.445313 275.96875 118.707031 275.746094 132.746094 275.515625 C 145.46875 275.300781 150.785156 275.902344 156.613281 283.132813 C 162.222656 290.085938 165.902344 299.191406 165.9375 299.28125 C 166.136719 299.777344 166.601563 300.117188 167.136719 300.152344 C 167.671875 300.191406 168.179688 299.921875 168.445313 299.453125 C 168.625 299.140625 171.726563 293.5625 171.726563 284.640625 C 171.726563 281.394531 171.316406 277.707031 170.203125 273.667969 C 168.523438 267.5625 165.730469 263.496094 163.496094 260.988281 C 165.054688 261.417969 167.042969 262.109375 169.652344 263.363281 C 174.933594 265.898438 179.128906 270.996094 179.171875 271.046875 C 179.550781 271.511719 180.183594 271.679688 180.742188 271.472656 C 181.304688 271.261719 181.667969 270.71875 181.648438 270.117188 C 181.625 269.429688 180.984375 253.109375 172.699219 243.671875 C 164.835938 234.707031 156.691406 233.953125 152.890625 234.15625 C 153.695313 232.328125 155.695313 229.496094 160.710938 227.773438 C 167.585938 225.414063 172.59375 226.847656 172.644531 226.859375 C 173.175781 227.019531 173.75 226.851563 174.109375 226.425781 C 174.464844 226.003906 174.542969 225.410156 174.300781 224.914063 C 174.074219 224.449219 168.59375 213.578125 153.484375 211.355469 C 141.582031 209.609375 132.261719 213.261719 127.945313 215.445313 C 128.734375 211.925781 130.871094 205.1875 136.765625 196.550781 C 146.242188 182.667969 160.6875 181.359375 160.832031 181.34375 C 161.328125 181.308594 161.765625 181.007813 161.980469 180.558594 C 162.070313 180.367188 162.117188 180.160156 162.117188 179.953125 C 162.117188 179.679688 162.035156 179.40625 161.878906 179.171875 C 161.605469 178.769531 155 169.28125 139.714844 170.191406 C 124.078125 171.125 109.652344 184.242188 103.8125 190.261719 C 104.253906 188.136719 105.214844 185.113281 107.539063 180.859375 C 113.921875 169.199219 119.429688 166.355469 119.484375 166.328125 C 119.960938 166.09375 120.261719 165.605469 120.261719 165.078125 L 120.261719 165.074219 C 120.261719 164.546875 119.964844 164.058594 119.492188 163.824219 C 118.691406 163.429688 99.582031 154.398438 69.953125 174.855469 M 82.394531 268.792969 C 63.519531 265.242188 52.15625 254.890625 48.628906 238.027344 C 44.535156 218.464844 51.089844 191.273438 71.539063 177.152344 C 93.964844 161.664063 110.042969 163.90625 115.816406 165.515625 C 113.382813 167.523438 109.402344 171.644531 105.09375 179.519531 C 101.273438 186.503906 100.636719 190.851563 100.636719 192.96875 C 100.636719 193.847656 100.746094 194.34375 100.78125 194.488281 C 100.914063 194.992188 101.3125 195.382813 101.820313 195.496094 C 102.328125 195.613281 102.863281 195.4375 103.195313 195.039063 C 103.375 194.828125 121.183594 174.089844 139.878906 172.976563 C 149.757813 172.390625 155.472656 176.515625 157.996094 178.984375 C 153.105469 179.992188 142.339844 183.433594 134.460938 194.980469 C 125.273438 208.4375 124.707031 217.628906 124.6875 218.015625 C 124.6875 218.039063 124.6875 218.0625 124.6875 218.085938 C 124.6875 218.585938 124.953125 219.050781 125.394531 219.300781 C 125.851563 219.558594 126.421875 219.535156 126.859375 219.242188 C 126.96875 219.171875 138.03125 211.902344 153.078125 214.117188 C 162.589844 215.515625 167.78125 220.589844 170.15625 223.683594 C 167.71875 223.515625 164.105469 223.65625 159.804688 225.136719 C 150.363281 228.382813 149.597656 235.328125 149.570313 235.621094 C 149.527344 236.070313 149.703125 236.507813 150.039063 236.804688 C 150.378906 237.097656 150.839844 237.214844 151.277344 237.113281 C 151.683594 237.019531 161.328125 234.941406 170.601563 245.511719 C 175.910156 251.5625 177.800781 260.996094 178.476563 266.277344 C 176.59375 264.5 173.933594 262.324219 170.859375 260.847656 C 162.921875 257.039063 159.433594 257.5625 159.0625 257.636719 C 158.507813 257.746094 158.074219 258.179688 157.960938 258.730469 C 157.945313 258.824219 157.933594 258.914063 157.933594 259.007813 C 157.933594 259.464844 158.164063 259.90625 158.558594 260.167969 C 158.617188 260.210938 164.761719 264.40625 167.515625 274.410156 C 168.539063 278.128906 168.914063 281.535156 168.914063 284.539063 C 168.914063 289.242188 167.996094 292.898438 167.191406 295.234375 C 165.609375 291.851563 162.691406 286.222656 158.785156 281.378906 C 152.207031 273.222656 146.125 272.5 132.800781 272.722656 C 118.804688 272.957031 105.679688 273.175781 82.394531 268.792969 "/>
<path style=" stroke:none;fill-rule:nonzero;fill:rgb(95.698547%,80.799866%,14.498901%);fill-opacity:1;" d="M 204.898438 198.257813 L 220.164063 198.257813 C 224.984375 198.257813 228.636719 198.773438 231.121094 199.808594 C 233.601563 200.84375 235.609375 202.933594 237.132813 206.085938 C 238.660156 209.234375 239.425781 214.3125 239.425781 221.3125 C 239.425781 226.046875 238.886719 229.347656 237.808594 231.214844 C 236.734375 233.082031 234.613281 234.515625 231.445313 235.515625 C 234.957031 236.621094 237.339844 238.453125 238.59375 241.015625 C 239.84375 243.574219 240.472656 247.5 240.472656 252.789063 L 240.472656 260.320313 C 240.472656 265.808594 240.015625 269.878906 239.109375 272.519531 C 238.199219 275.164063 236.753906 276.976563 234.769531 277.945313 C 232.785156 278.914063 228.722656 279.398438 222.574219 279.398438 L 204.898438 279.398438 L 204.898438 198.257813 M 220.128906 212.089844 L 220.128906 230.109375 C 220.792969 230.078125 221.3125 230.058594 221.683594 230.058594 C 223.214844 230.058594 224.191406 229.550781 224.609375 228.53125 C 225.03125 227.515625 225.242188 224.605469 225.242188 219.800781 C 225.242188 217.265625 225.066406 215.484375 224.722656 214.46875 C 224.378906 213.453125 223.925781 212.808594 223.367188 212.542969 C 222.8125 212.277344 221.730469 212.125 220.128906 212.089844 M 220.128906 242.78125 L 220.128906 265.566406 C 222.324219 265.46875 223.726563 264.996094 224.335938 264.15625 C 224.9375 263.320313 225.242188 261.257813 225.242188 257.972656 L 225.242188 250.375 C 225.242188 246.886719 224.96875 244.777344 224.425781 244.039063 C 223.882813 243.300781 222.449219 242.882813 220.128906 242.78125 "/>
<path style=" stroke:none;fill-rule:nonzero;fill:rgb(13.699341%,12.199402%,12.5%);fill-opacity:1;" d="M 204.898438 197.328125 C 204.382813 197.328125 203.96875 197.742188 203.96875 198.257813 L 203.96875 279.398438 C 203.96875 279.914063 204.382813 280.328125 204.898438 280.328125 L 222.574219 280.328125 C 228.925781 280.328125 233.046875 279.824219 235.179688 278.78125 C 237.382813 277.703125 239 275.699219 239.988281 272.824219 C 240.9375 270.054688 241.398438 265.964844 241.398438 260.320313 L 241.398438 252.789063 C 241.398438 247.304688 240.757813 243.320313 239.429688 240.605469 C 238.335938 238.367188 236.414063 236.65625 233.773438 235.449219 C 235.949219 234.449219 237.710938 233.25 238.613281 231.679688 C 239.785156 229.648438 240.355469 226.257813 240.355469 221.3125 C 240.355469 214.105469 239.574219 208.992188 237.972656 205.679688 C 236.351563 202.332031 234.164063 200.070313 231.476563 198.949219 C 228.851563 197.859375 225.152344 197.328125 220.164063 197.328125 L 204.898438 197.328125 M 220.164063 199.1875 C 224.835938 199.1875 228.402344 199.683594 230.761719 200.667969 C 233.019531 201.605469 234.878906 203.566406 236.296875 206.488281 C 237.753906 209.5 238.492188 214.488281 238.492188 221.3125 C 238.492188 225.859375 237.992188 229.03125 237.003906 230.75 C 236.050781 232.402344 234.089844 233.707031 231.164063 234.628906 C 230.777344 234.75 230.515625 235.109375 230.515625 235.515625 C 230.515625 235.921875 230.777344 236.28125 231.164063 236.402344 C 234.410156 237.421875 236.628906 239.109375 237.757813 241.421875 C 238.941406 243.84375 239.539063 247.667969 239.539063 252.789063 L 239.539063 260.320313 C 239.539063 265.679688 239.097656 269.683594 238.230469 272.21875 C 237.394531 274.644531 236.132813 276.246094 234.363281 277.109375 C 232.515625 278.011719 228.550781 278.46875 222.574219 278.46875 C 222.574219 278.46875 207.496094 278.46875 205.828125 278.46875 C 205.828125 276.675781 205.828125 200.984375 205.828125 199.1875 C 207.46875 199.1875 220.164063 199.1875 220.164063 199.1875 "/>
<path style=" stroke:none;fill-rule:nonzero;fill:rgb(13.699341%,12.199402%,12.5%);fill-opacity:1;" d="M 219.476563 211.425781 C 219.296875 211.601563 219.195313 211.84375 219.195313 212.089844 L 219.195313 230.109375 C 219.195313 230.363281 219.308594 230.601563 219.488281 230.777344 C 219.667969 230.953125 219.921875 231.046875 220.171875 231.039063 L 221.683594 230.988281 C 224.09375 230.988281 225.074219 229.847656 225.472656 228.890625 C 225.773438 228.160156 226.171875 226.425781 226.171875 219.800781 C 226.171875 217.140625 225.984375 215.296875 225.601563 214.171875 C 225.171875 212.894531 224.570313 212.089844 223.769531 211.703125 C 223.078125 211.371094 221.925781 211.199219 220.144531 211.160156 C 219.894531 211.15625 219.65625 211.253906 219.476563 211.425781 M 221.058594 213.09375 C 222.132813 213.171875 222.78125 213.289063 222.96875 213.382813 C 223.148438 213.464844 223.5 213.761719 223.839844 214.765625 C 224.054688 215.398438 224.3125 216.785156 224.3125 219.800781 C 224.3125 225.90625 223.960938 227.671875 223.75 228.179688 C 223.644531 228.4375 223.359375 229.128906 221.683594 229.128906 C 221.683594 229.128906 221.355469 229.140625 221.058594 229.148438 C 221.058594 227.527344 221.058594 214.773438 221.058594 213.09375 "/>
<path style=" stroke:none;fill-rule:nonzero;fill:rgb(13.699341%,12.199402%,12.5%);fill-opacity:1;" d="M 219.484375 242.109375 C 219.300781 242.285156 219.195313 242.527344 219.195313 242.78125 L 219.195313 265.566406 C 219.195313 265.820313 219.300781 266.0625 219.484375 266.238281 C 219.667969 266.414063 219.914063 266.507813 220.167969 266.496094 C 222.6875 266.382813 224.296875 265.792969 225.089844 264.703125 C 225.554688 264.058594 226.171875 262.65625 226.171875 257.972656 L 226.171875 250.375 C 226.171875 245.46875 225.640625 244.117188 225.175781 243.488281 C 224.4375 242.488281 222.847656 241.96875 220.167969 241.851563 C 219.914063 241.84375 219.667969 241.933594 219.484375 242.109375 M 221.058594 243.804688 C 222.984375 244.003906 223.566406 244.441406 223.679688 244.59375 C 223.824219 244.792969 224.3125 245.804688 224.3125 250.375 L 224.3125 257.972656 C 224.3125 262.148438 223.800781 263.308594 223.578125 263.613281 C 223.378906 263.894531 222.722656 264.335938 221.058594 264.535156 C 221.058594 262.75 221.058594 245.578125 221.058594 243.804688 "/>
<path style=" stroke:none;fill-rule:nonzero;fill:rgb(95.698547%,80.799866%,14.498901%);fill-opacity:1;" d="M 275.191406 198.257813 L 283.941406 279.398438 L 268.390625 279.398438 L 267.570313 264.867188 L 261.976563 264.867188 L 261.128906 279.398438 L 245.402344 279.398438 L 253.164063 198.257813 L 275.191406 198.257813 M 267.132813 250.453125 C 266.429688 241.242188 265.660156 229.855469 264.816406 216.28125 C 263.3125 231.867188 262.324219 243.257813 261.859375 250.453125 L 267.132813 250.453125 "/>
<path style=" stroke:none;fill-rule:nonzero;fill:rgb(13.699341%,12.199402%,12.5%);fill-opacity:1;" d="M 253.164063 197.328125 C 252.683594 197.328125 252.28125 197.691406 252.238281 198.167969 L 244.480469 279.3125 C 244.453125 279.570313 244.539063 279.832031 244.714844 280.027344 C 244.890625 280.21875 245.140625 280.328125 245.402344 280.328125 L 261.128906 280.328125 C 261.617188 280.328125 262.027344 279.945313 262.054688 279.453125 C 262.054688 279.453125 262.761719 267.34375 262.855469 265.800781 C 263.867188 265.800781 265.675781 265.800781 266.691406 265.800781 C 266.777344 267.347656 267.464844 279.453125 267.464844 279.453125 C 267.492188 279.945313 267.898438 280.328125 268.390625 280.328125 L 283.941406 280.328125 C 284.203125 280.328125 284.457031 280.21875 284.632813 280.019531 C 284.808594 279.824219 284.894531 279.5625 284.863281 279.300781 L 276.117188 198.15625 C 276.066406 197.683594 275.667969 197.328125 275.191406 197.328125 L 253.164063 197.328125 M 274.355469 199.1875 C 274.53125 200.792969 282.691406 276.484375 282.90625 278.46875 C 281.210938 278.46875 270.726563 278.46875 269.269531 278.46875 C 269.183594 276.921875 268.496094 264.816406 268.496094 264.816406 C 268.46875 264.324219 268.0625 263.9375 267.570313 263.9375 L 261.976563 263.9375 C 261.484375 263.9375 261.078125 264.320313 261.046875 264.8125 C 261.046875 264.8125 260.339844 276.925781 260.25 278.46875 C 258.792969 278.46875 248.109375 278.46875 246.425781 278.46875 C 246.613281 276.503906 253.851563 200.816406 254.007813 199.1875 C 255.511719 199.1875 272.871094 199.1875 274.355469 199.1875 "/>
<path style=" stroke:none;fill-rule:nonzero;fill:rgb(13.699341%,12.199402%,12.5%);fill-opacity:1;" d="M 263.894531 216.195313 C 262.390625 231.71875 261.394531 243.222656 260.929688 250.394531 C 260.914063 250.648438 261.003906 250.902344 261.179688 251.089844 C 261.355469 251.277344 261.601563 251.382813 261.859375 251.382813 L 267.132813 251.382813 C 267.390625 251.382813 267.636719 251.273438 267.8125 251.085938 C 267.988281 250.898438 268.074219 250.640625 268.058594 250.382813 L 265.746094 216.226563 C 265.714844 215.742188 265.316406 215.363281 264.832031 215.355469 C 264.347656 215.347656 263.9375 215.710938 263.894531 216.195313 M 264.664063 227.796875 C 265.320313 237.476563 266.054688 248.289063 266.136719 249.523438 C 265.132813 249.523438 263.867188 249.523438 262.859375 249.523438 C 263.210938 244.3125 263.808594 237.078125 264.664063 227.796875 "/>
<path style=" stroke:none;fill-rule:nonzero;fill:rgb(95.698547%,80.799866%,14.498901%);fill-opacity:1;" d="M 289.585938 198.257813 L 300.382813 198.257813 C 307.582031 198.257813 312.453125 198.640625 315.003906 199.410156 C 317.550781 200.175781 319.628906 202.136719 321.234375 205.289063 C 322.839844 208.445313 323.644531 213.476563 323.644531 220.382813 C 323.644531 226.6875 323.078125 230.925781 321.941406 233.097656 C 320.804688 235.265625 318.566406 236.566406 315.230469 237 C 318.253906 238.035156 320.28125 239.425781 321.324219 241.164063 C 322.363281 242.902344 323.011719 244.5 323.265625 245.957031 C 323.519531 247.414063 323.644531 251.417969 323.644531 257.972656 L 323.644531 279.398438 L 309.464844 279.398438 L 309.464844 252.410156 C 309.464844 248.066406 309.214844 245.371094 308.71875 244.335938 C 308.222656 243.300781 306.921875 242.78125 304.8125 242.78125 L 304.8125 279.398438 L 289.585938 279.398438 L 289.585938 198.257813 M 304.8125 212.089844 L 304.8125 230.109375 C 306.53125 230.109375 307.738281 229.785156 308.429688 229.136719 C 309.117188 228.484375 309.464844 226.375 309.464844 222.800781 L 309.464844 218.347656 C 309.464844 215.777344 309.128906 214.09375 308.464844 213.292969 C 307.796875 212.492188 306.578125 212.089844 304.8125 212.089844 "/>
<path style=" stroke:none;fill-rule:nonzero;fill:rgb(13.699341%,12.199402%,12.5%);fill-opacity:1;" d="M 289.585938 197.328125 C 289.070313 197.328125 288.652344 197.742188 288.652344 198.257813 L 288.652344 279.398438 C 288.652344 279.914063 289.070313 280.328125 289.585938 280.328125 L 304.8125 280.328125 C 305.328125 280.328125 305.742188 279.914063 305.742188 279.398438 C 305.742188 279.398438 305.742188 245.597656 305.742188 243.753906 C 306.671875 243.84375 307.574219 244.105469 307.878906 244.738281 C 308.121094 245.246094 308.53125 246.925781 308.53125 252.410156 L 308.53125 279.398438 C 308.53125 279.914063 308.949219 280.328125 309.464844 280.328125 L 323.644531 280.328125 C 324.160156 280.328125 324.574219 279.914063 324.574219 279.398438 L 324.574219 257.972656 C 324.574219 251.304688 324.445313 247.320313 324.179688 245.796875 C 323.90625 244.234375 323.214844 242.519531 322.121094 240.6875 C 321.320313 239.347656 319.816406 238.269531 318.003906 237.320313 C 320.21875 236.582031 321.824219 235.320313 322.761719 233.527344 C 323.984375 231.203125 324.574219 226.902344 324.574219 220.382813 C 324.574219 213.261719 323.753906 208.1875 322.0625 204.867188 C 320.347656 201.496094 318.0625 199.359375 315.273438 198.519531 C 312.605469 197.71875 307.738281 197.328125 300.382813 197.328125 L 289.585938 197.328125 M 300.382813 199.1875 C 307.453125 199.1875 312.28125 199.5625 314.734375 200.300781 C 317.019531 200.988281 318.929688 202.808594 320.40625 205.714844 C 321.9375 208.722656 322.714844 213.65625 322.714844 220.382813 C 322.714844 226.507813 322.179688 230.640625 321.117188 232.664063 C 320.117188 234.566406 318.15625 235.683594 315.109375 236.078125 C 314.683594 236.132813 314.347656 236.476563 314.304688 236.90625 C 314.300781 236.9375 314.300781 236.96875 314.300781 237 C 314.300781 237.394531 314.550781 237.75 314.929688 237.878906 C 317.722656 238.839844 319.605469 240.105469 320.523438 241.640625 C 321.503906 243.277344 322.113281 244.78125 322.347656 246.117188 C 322.59375 247.511719 322.714844 251.503906 322.714844 257.972656 C 322.714844 257.972656 322.714844 276.769531 322.714844 278.46875 C 321.203125 278.46875 311.902344 278.46875 310.394531 278.46875 C 310.394531 276.734375 310.394531 252.410156 310.394531 252.410156 C 310.394531 246.378906 309.914063 244.683594 309.558594 243.933594 C 308.894531 242.550781 307.296875 241.851563 304.8125 241.851563 C 304.300781 241.851563 303.882813 242.265625 303.882813 242.78125 C 303.882813 242.78125 303.882813 276.703125 303.882813 278.46875 C 302.351563 278.46875 292.046875 278.46875 290.515625 278.46875 C 290.515625 276.675781 290.515625 200.984375 290.515625 199.1875 C 292.066406 199.1875 300.382813 199.1875 300.382813 199.1875 "/>
<path style=" stroke:none;fill-rule:nonzero;fill:rgb(13.699341%,12.199402%,12.5%);fill-opacity:1;" d="M 303.882813 212.089844 L 303.882813 230.109375 C 303.882813 230.625 304.300781 231.039063 304.8125 231.039063 C 306.796875 231.039063 308.1875 230.636719 309.066406 229.8125 C 309.683594 229.230469 310.394531 227.90625 310.394531 222.800781 L 310.394531 218.347656 C 310.394531 215.492188 310.007813 213.695313 309.179688 212.699219 C 308.328125 211.679688 306.859375 211.160156 304.8125 211.160156 C 304.300781 211.160156 303.882813 211.578125 303.882813 212.089844 M 305.742188 213.132813 C 306.65625 213.246094 307.394531 213.464844 307.75 213.886719 C 308.042969 214.238281 308.53125 215.289063 308.53125 218.347656 L 308.53125 222.800781 C 308.53125 227.519531 307.914063 228.339844 307.789063 228.457031 C 307.519531 228.714844 306.816406 228.953125 305.742188 229.070313 C 305.742188 227.339844 305.742188 214.871094 305.742188 213.132813 "/>
<path style=" stroke:none;fill-rule:nonzero;fill:rgb(95.698547%,80.799866%,14.498901%);fill-opacity:1;" d="M 347.789063 198.257813 L 347.789063 279.398438 L 332.5625 279.398438 L 332.5625 198.257813 L 347.789063 198.257813 "/>
<path style=" stroke:none;fill-rule:nonzero;fill:rgb(13.699341%,12.199402%,12.5%);fill-opacity:1;" d="M 332.5625 197.328125 C 332.046875 197.328125 331.632813 197.742188 331.632813 198.257813 L 331.632813 279.398438 C 331.632813 279.914063 332.046875 280.328125 332.5625 280.328125 L 347.789063 280.328125 C 348.304688 280.328125 348.722656 279.914063 348.722656 279.398438 L 348.722656 198.257813 C 348.722656 197.742188 348.304688 197.328125 347.789063 197.328125 L 332.5625 197.328125 M 346.859375 199.1875 C 346.859375 200.984375 346.859375 276.675781 346.859375 278.46875 C 345.328125 278.46875 335.023438 278.46875 333.492188 278.46875 C 333.492188 276.675781 333.492188 200.984375 333.492188 199.1875 C 335.023438 199.1875 345.328125 199.1875 346.859375 199.1875 "/>
<path style=" stroke:none;fill-rule:nonzero;fill:rgb(95.698547%,80.799866%,14.498901%);fill-opacity:1;" d="M 238 287.769531 L 247.679688 368.910156 L 230.503906 368.910156 L 229.597656 354.382813 L 223.46875 354.382813 L 222.539063 368.910156 L 205.128906 368.910156 L 213.761719 287.769531 L 238 287.769531 M 229.082031 339.964844 C 228.253906 330.761719 227.417969 319.371094 226.578125 305.796875 C 224.90625 321.382813 223.855469 332.773438 223.429688 339.964844 L 229.082031 339.964844 "/>
<path style=" stroke:none;fill-rule:nonzero;fill:rgb(95.698547%,80.799866%,14.498901%);fill-opacity:1;" d="M 266.039063 352.40625 L 266.039063 368.910156 L 253.835938 368.910156 L 253.835938 352.40625 L 266.039063 352.40625 "/>
<path style=" stroke:none;fill-rule:nonzero;fill:rgb(95.698547%,80.799866%,14.498901%);fill-opacity:1;" d="M 309.753906 312.300781 L 294.175781 312.300781 L 294.175781 306.273438 C 294.175781 303.460938 293.972656 301.667969 293.570313 300.898438 C 293.171875 300.128906 292.503906 299.742188 291.566406 299.742188 C 290.550781 299.742188 289.78125 300.261719 289.257813 301.300781 C 288.738281 302.339844 288.476563 303.910156 288.476563 306.019531 C 288.476563 308.730469 288.769531 310.773438 289.355469 312.144531 C 289.910156 313.519531 291.492188 315.175781 294.101563 317.113281 C 301.578125 322.695313 306.289063 327.28125 308.234375 330.859375 C 310.175781 334.441406 311.148438 340.210938 311.148438 348.171875 C 311.148438 353.960938 310.605469 358.226563 309.527344 360.972656 C 308.449219 363.714844 306.367188 366.015625 303.28125 367.871094 C 300.191406 369.726563 296.597656 370.65625 292.496094 370.65625 C 287.996094 370.65625 284.15625 369.585938 280.976563 367.445313 C 277.792969 365.304688 275.710938 362.578125 274.726563 359.265625 C 273.742188 355.957031 273.25 351.257813 273.25 345.167969 L 273.25 339.851563 L 288.828125 339.851563 L 288.828125 349.75 C 288.828125 352.800781 289.046875 354.761719 289.480469 355.632813 C 289.917969 356.503906 290.695313 356.9375 291.808594 356.9375 C 292.921875 356.9375 293.746094 356.386719 294.289063 355.277344 C 294.832031 354.171875 295.105469 352.527344 295.105469 350.34375 C 295.105469 345.542969 294.59375 342.40625 293.578125 340.929688 C 292.53125 339.453125 289.925781 337.003906 285.753906 333.574219 C 281.582031 330.113281 278.820313 327.597656 277.472656 326.023438 C 276.117188 324.453125 275 322.277344 274.113281 319.5 C 273.226563 316.722656 272.785156 313.175781 272.785156 308.859375 C 272.785156 302.636719 273.414063 298.085938 274.679688 295.210938 C 275.941406 292.332031 277.980469 290.085938 280.800781 288.460938 C 283.617188 286.839844 287.019531 286.027344 291.007813 286.027344 C 295.367188 286.027344 299.085938 286.914063 302.152344 288.683594 C 305.222656 290.457031 307.257813 292.6875 308.253906 295.378906 C 309.253906 298.070313 309.753906 302.640625 309.753906 309.089844 L 309.753906 312.300781 "/>
<path style=" stroke:none;fill-rule:nonzero;fill:rgb(95.698547%,80.799866%,14.498901%);fill-opacity:1;" d="M 329.972656 352.40625 L 329.972656 368.910156 L 317.769531 368.910156 L 317.769531 352.40625 L 329.972656 352.40625 "/>
<path style=" stroke:none;fill-rule:nonzero;fill:rgb(13.699341%,12.199402%,12.5%);fill-opacity:1;" d="M 213.761719 286.839844 C 213.285156 286.839844 212.886719 287.199219 212.839844 287.671875 L 204.207031 368.8125 C 204.175781 369.074219 204.261719 369.339844 204.4375 369.535156 C 204.617188 369.730469 204.867188 369.84375 205.128906 369.84375 L 222.539063 369.84375 C 223.027344 369.84375 223.433594 369.460938 223.46875 368.972656 C 223.46875 368.972656 224.242188 356.851563 224.34375 355.3125 C 225.410156 355.3125 227.652344 355.3125 228.726563 355.3125 C 228.820313 356.851563 229.574219 368.96875 229.574219 368.96875 C 229.605469 369.460938 230.011719 369.84375 230.503906 369.84375 L 247.679688 369.84375 C 247.945313 369.84375 248.195313 369.730469 248.371094 369.53125 C 248.550781 369.332031 248.632813 369.066406 248.601563 368.800781 L 238.925781 287.660156 C 238.867188 287.191406 238.472656 286.839844 238 286.839844 L 213.761719 286.839844 M 237.175781 288.699219 C 237.363281 290.285156 246.390625 365.976563 246.628906 367.984375 C 244.882813 367.984375 232.851563 367.984375 231.375 367.984375 C 231.28125 366.441406 230.527344 354.324219 230.527344 354.324219 C 230.496094 353.835938 230.089844 353.449219 229.597656 353.449219 L 223.46875 353.449219 C 222.980469 353.449219 222.574219 353.832031 222.539063 354.320313 C 222.539063 354.320313 221.765625 366.445313 221.664063 367.984375 C 220.191406 367.984375 207.898438 367.984375 206.164063 367.984375 C 206.375 365.996094 214.425781 290.308594 214.597656 288.699219 C 216.101563 288.699219 235.6875 288.699219 237.175781 288.699219 "/>
<path style=" stroke:none;fill-rule:nonzero;fill:rgb(13.699341%,12.199402%,12.5%);fill-opacity:1;" d="M 225.652344 305.695313 C 223.988281 321.222656 222.929688 332.734375 222.5 339.910156 C 222.484375 340.167969 222.578125 340.417969 222.753906 340.605469 C 222.929688 340.789063 223.171875 340.894531 223.429688 340.894531 L 229.082031 340.894531 C 229.34375 340.894531 229.59375 340.785156 229.769531 340.59375 C 229.945313 340.402344 230.03125 340.140625 230.007813 339.882813 C 229.183594 330.746094 228.34375 319.261719 227.507813 305.738281 C 227.476563 305.257813 227.082031 304.878906 226.597656 304.867188 C 226.117188 304.855469 225.703125 305.21875 225.652344 305.695313 M 226.363281 316.835938 C 226.933594 325.257813 227.507813 332.6875 228.070313 339.035156 C 226.996094 339.035156 225.484375 339.035156 224.425781 339.035156 C 224.765625 333.730469 225.402344 326.359375 226.363281 316.835938 "/>
<path style=" stroke:none;fill-rule:nonzero;fill:rgb(13.699341%,12.199402%,12.5%);fill-opacity:1;" d="M 253.835938 351.476563 C 253.320313 351.476563 252.902344 351.890625 252.902344 352.40625 L 252.902344 368.910156 C 252.902344 369.425781 253.320313 369.84375 253.835938 369.84375 L 266.039063 369.84375 C 266.554688 369.84375 266.96875 369.425781 266.96875 368.910156 L 266.96875 352.40625 C 266.96875 351.890625 266.554688 351.476563 266.039063 351.476563 L 253.835938 351.476563 M 265.109375 353.335938 C 265.109375 354.890625 265.109375 366.425781 265.109375 367.984375 C 263.652344 367.984375 256.222656 367.984375 254.765625 367.984375 C 254.765625 366.425781 254.765625 354.890625 254.765625 353.335938 C 256.222656 353.335938 263.652344 353.335938 265.109375 353.335938 "/>
<path style=" stroke:none;fill-rule:nonzero;fill:rgb(13.699341%,12.199402%,12.5%);fill-opacity:1;" d="M 280.335938 287.65625 C 277.355469 289.371094 275.164063 291.789063 273.828125 294.835938 C 272.5 297.855469 271.855469 302.445313 271.855469 308.859375 C 271.855469 313.253906 272.316406 316.929688 273.226563 319.78125 C 274.148438 322.667969 275.339844 324.96875 276.765625 326.632813 C 278.160156 328.257813 280.90625 330.761719 285.160156 334.289063 C 289.246094 337.648438 291.820313 340.0625 292.816406 341.46875 C 293.433594 342.359375 294.175781 344.636719 294.175781 350.34375 C 294.175781 352.371094 293.933594 353.894531 293.453125 354.867188 C 293.066406 355.65625 292.558594 356.007813 291.808594 356.007813 C 290.835938 356.007813 290.5 355.585938 290.3125 355.21875 C 290.105469 354.800781 289.757813 353.539063 289.757813 349.75 L 289.757813 339.851563 C 289.757813 339.335938 289.339844 338.921875 288.828125 338.921875 L 273.25 338.921875 C 272.734375 338.921875 272.320313 339.335938 272.320313 339.851563 L 272.320313 345.167969 C 272.320313 351.316406 272.828125 356.152344 273.835938 359.53125 C 274.878906 363.042969 277.105469 365.964844 280.457031 368.21875 C 283.78125 370.453125 287.832031 371.585938 292.496094 371.585938 C 296.746094 371.585938 300.535156 370.605469 303.757813 368.667969 C 307.011719 366.714844 309.242188 364.238281 310.394531 361.3125 C 311.527344 358.433594 312.078125 354.136719 312.078125 348.171875 C 312.078125 339.980469 311.085938 334.171875 309.050781 330.414063 C 307.023438 326.679688 302.3125 322.085938 294.660156 316.367188 C 291.59375 314.089844 290.550781 312.625 290.214844 311.796875 C 289.679688 310.53125 289.40625 308.59375 289.40625 306.019531 C 289.40625 304.066406 289.636719 302.621094 290.089844 301.71875 C 290.554688 300.792969 291.125 300.675781 291.566406 300.675781 C 292.152344 300.675781 292.507813 300.871094 292.746094 301.328125 C 292.933594 301.683594 293.242188 302.800781 293.242188 306.273438 L 293.242188 312.300781 C 293.242188 312.8125 293.660156 313.230469 294.175781 313.230469 L 309.753906 313.230469 C 310.265625 313.230469 310.683594 312.8125 310.683594 312.300781 L 310.683594 309.089844 C 310.683594 302.46875 310.171875 297.878906 309.128906 295.054688 C 308.058594 292.167969 305.867188 289.753906 302.617188 287.878906 C 299.417969 286.03125 295.511719 285.097656 291.007813 285.097656 C 286.875 285.097656 283.285156 285.957031 280.335938 287.65625 M 295.121094 355.6875 C 295.734375 354.4375 296.035156 352.691406 296.035156 350.34375 C 296.035156 345.308594 295.480469 342.054688 294.34375 340.402344 C 293.226563 338.828125 290.613281 336.363281 286.34375 332.855469 C 282.234375 329.445313 279.484375 326.945313 278.175781 325.417969 C 276.914063 323.949219 275.84375 321.863281 275 319.21875 C 274.144531 316.546875 273.714844 313.058594 273.714844 308.859375 C 273.714844 302.792969 274.324219 298.324219 275.53125 295.585938 C 276.703125 292.90625 278.632813 290.78125 281.265625 289.265625 C 283.925781 287.734375 287.203125 286.957031 291.007813 286.957031 C 295.183594 286.957031 298.773438 287.808594 301.6875 289.488281 C 304.550781 291.144531 306.46875 293.234375 307.382813 295.699219 C 308.339844 298.277344 308.820313 302.78125 308.820313 309.089844 C 308.820313 309.089844 308.820313 310.429688 308.820313 311.367188 C 307.28125 311.367188 296.644531 311.367188 295.105469 311.367188 C 295.105469 310.039063 295.105469 306.273438 295.105469 306.273438 C 295.105469 302.289063 294.699219 301.054688 294.394531 300.46875 C 293.832031 299.386719 292.855469 298.8125 291.566406 298.8125 C 290.609375 298.8125 289.285156 299.171875 288.429688 300.882813 C 287.835938 302.0625 287.546875 303.742188 287.546875 306.019531 C 287.546875 308.886719 287.859375 311.011719 288.496094 312.511719 C 289.117188 314.039063 290.769531 315.796875 293.546875 317.859375 C 300.878906 323.335938 305.546875 327.855469 307.414063 331.304688 C 309.273438 334.730469 310.21875 340.40625 310.21875 348.171875 C 310.21875 353.816406 309.695313 358.007813 308.664063 360.632813 C 307.664063 363.167969 305.691406 365.335938 302.800781 367.074219 C 299.871094 368.835938 296.40625 369.726563 292.496094 369.726563 C 288.207031 369.726563 284.507813 368.699219 281.496094 366.671875 C 278.511719 364.667969 276.535156 362.085938 275.617188 359.003906 C 274.664063 355.792969 274.179688 351.136719 274.179688 345.167969 C 274.179688 345.167969 274.179688 342.046875 274.179688 340.78125 C 275.71875 340.78125 286.355469 340.78125 287.898438 340.78125 C 287.898438 342.308594 287.898438 349.75 287.898438 349.75 C 287.898438 354.050781 288.328125 355.402344 288.652344 356.050781 C 289.066406 356.878906 289.949219 357.867188 291.808594 357.867188 C 293.277344 357.867188 294.425781 357.113281 295.121094 355.6875 "/>
<path style=" stroke:none;fill-rule:nonzero;fill:rgb(13.699341%,12.199402%,12.5%);fill-opacity:1;" d="M 317.769531 351.476563 C 317.253906 351.476563 316.839844 351.890625 316.839844 352.40625 L 316.839844 368.910156 C 316.839844 369.425781 317.253906 369.84375 317.769531 369.84375 L 329.972656 369.84375 C 330.488281 369.84375 330.902344 369.425781 330.902344 368.910156 L 330.902344 352.40625 C 330.902344 351.890625 330.488281 351.476563 329.972656 351.476563 L 317.769531 351.476563 M 329.042969 353.335938 C 329.042969 354.890625 329.042969 366.425781 329.042969 367.984375 C 327.585938 367.984375 320.152344 367.984375 318.699219 367.984375 C 318.699219 366.425781 318.699219 354.890625 318.699219 353.335938 C 320.152344 353.335938 327.585938 353.335938 329.042969 353.335938 "/>
<path style=" stroke:none;fill-rule:nonzero;fill:rgb(13.699341%,12.199402%,12.5%);fill-opacity:1;" d="M 186.648438 2.90625 L 186.648438 566.75 L 190.367188 566.75 L 190.367188 2.90625 L 186.648438 2.90625 "/>
</g>
</svg>
