<?xml version="1.0" encoding="UTF-8" standalone="no"?><svg width="530.316" height="755.148" viewBox="0 0 397.737 566.361" fill-rule="evenodd" xmlns="http://www.w3.org/2000/svg"><path style="fill:#1f211d;stroke:none" d="M100.026 139.891v367.557c0 .069-.003.222-.003.465-.008 16.893 3.371 32.922 9.095 47.616 10.056 25.765 26.967 47.452 45.995 65.758 28.613 27.429 62.362 47.604 89.142 61.329 26.778 13.682 46.618 20.774 47.256 21.004l7.381 2.632 7.38-2.632c.992-.394 46.492-16.535 93.337-48.002 23.416-15.791 47.288-35.427 65.983-59.782 9.328-12.182 17.348-25.592 23.073-40.305 5.725-14.694 9.104-30.723 9.095-47.618V139.891Z" transform="translate(-100.023 -139.891)"/><path style="fill:#fff;stroke:none" d="M105.518 225.506V507.471l-.002.44c-.013 32.449 12.922 60.993 31.037 84.583 27.281 35.471 66.269 61.357 98.467 79.028 32.216 17.597 57.787 26.722 58.337 26.926l5.535 1.974 5.536-1.974c.743-.296 45.925-16.344 92.112-47.385 23.092-15.566 46.525-34.888 64.691-58.567 18.116-23.592 31.05-52.136 31.036-84.583V225.506Z" transform="translate(-100.023 -139.891)"/><path style="fill:#f7bdca;stroke:none" d="M111.01 231V507.912c-.011 30.96 12.299 58.297 29.902 81.243 26.48 34.473 64.911 60.102 96.74 77.547 31.844 17.396 57.183 26.437 57.551 26.572l3.689 1.315 3.689-1.315c.497-.197 45.359-16.154 90.893-46.768 22.766-15.338 45.756-34.346 63.396-57.351 17.606-22.946 29.913-50.283 29.903-81.243V231Z" transform="translate(-100.023 -139.891)"/><path style="fill:#fff;stroke:none" d="M116.503 236.491v271.042l-.001.379c-.005 29.47 11.677 55.603 28.772 77.904 25.678 33.476 63.55 58.848 95.013 76.066 31.468 17.193 56.577 26.151 56.761 26.218l1.843.658 1.847-.658c.248-.099 44.788-15.963 89.669-46.151 22.438-15.109 44.99-33.804 62.102-56.133 17.095-22.298 28.777-48.434 28.77-77.904V236.491Z" transform="translate(-100.023 -139.891)"/><path style="fill:#1f211d;stroke:none" d="M298.893 682.927s177.297-63.231 176.896-175.392V241.986L134.795 559.139c40.636 79.754 164.098 123.788 164.098 123.788z" transform="translate(-100.023 -139.891)"/><path style="fill:#f7bdca;stroke:none" d="M121.997 241.985v265.55c-.066 18.564 4.738 35.785 12.798 51.604l340.994-317.153v-.001z" transform="translate(-100.023 -139.891)"/><path style="fill:#c6ae43;stroke:none" d="m263.219 658.955 86.725-90.056c5.516-8.191 13.789-10.373 24.445-8.191l-4.742 6.007c12.619-2.737 21.288-3.823 26.021-2.184l-4.733 4.911c3.949-1.097 6.707-1.097 10.645-1.641 9.067-.543 14.196 3.824 22.867 1.641 3.155-.543 4.722-1.097 7.48-2.727 6.706-4.366 9.861-3.28 8.68 2.727-.783 14.185 7.491 17.465 14.981 9.819-6.696 1.64-7.49-3.813-2.372-16.912l9.861-9.287c2.758-6.55 9.068-5.996 11.429-1.63-1.181-9.286-5.913-12.013-14.981-7.647 3.156-6.55 6.707-8.733 10.248-5.453-3.938-8.732-9.454-9.83-16.16-.554l-11.428 9.288-48.095-24.016c25.228-28.937 43.363-47.489 53.61-55.679 4.733-3.823 8.671-4.91 9.861-5.453 3.156-1.641 4.722-3.28 8.274-3.28 2.758 0 4.722 2.183 5.913 4.366-1.191-8.189-.397-11.459-5.516-15.826-3.551-2.727-6.707-2.183-11.042-3.823-4.335-2.727-5.912-5.997-11.042-7.093-13.391-3.27-23.252 2.183-38.232 2.183-3.552 0-5.913-.544-9.465-1.087l4.346 5.454c-11.439 0-18.135 0-21.289-1.086 1.18 2.725 2.758 4.909 4.335 5.996l-14.981.543c-3.937-.543-7.489-3.814-10.644-9.277l-48.878-74.231-88.302-134.266c-8.671 10.916-13.403 30.023-12.615 42.026l-16.16-10.917c-11.433 24.57-10.248 44.762-1.18 61.675l-16.558-10.363c-5.521 28.383-4.335 53.485 3.944 62.218l-17.743-2.726c-3.938 29.469 1.974 50.215 13.799 58.405l-21.289-10.373c-3.547 30.012 7.098 52.398 32.326 67.681l64.255 41.483-123.386 31.651c11.433 17.467 17.743 21.29 38.238 25.656l-21.681 5.453c10.645 6.007 26.413 20.747 40.996 17.466l-14.191 7.648c8.676 9.276 29.171 12.546 40.997 10.362l-15.372 8.733c8.67 8.19 31.14 15.836 44.151 9.831l-13.799 11.458c9.459 6.007 14.979 11.46 24.047 6.55l13.402-5.453" transform="translate(-100.023 -139.891)"/><path style="fill:#fff;stroke:none" d="M284.901 544.882c-6.702-1.64-10.254-4.92-16.955-3.28-29.954 5.464-59.523 18.009-95.787 26.743-6.309 1.639-9.856 0-16.16-.544 9.459 7.094 16.552 10.917 28.382 9.83 9.851-.554 17.341-1.097 26.805-6.006 24.44-9.83 38.631-15.283 63.858-23.474 3.547-1.085 5.913-1.639 9.857-3.269M446.521 444.451c-4.336 1.63-7.491 1.087-10.646-.552 1.578 7.646 11.031 7.646 10.646.552M357.821 461.364C265.977 353.297 216.702 292.166 210.79 276.883c.788 19.106-2.758 33.846 8.675 48.575 35.476 46.402 63.07 61.686 116.68 120.08l21.676 15.826M345.599 477.201c-93.813-83.508-144.665-131.54-151.759-144.096 3.155 16.369 1.97 30.023 13.403 41.482 37.45 36.572 63.467 45.849 117.463 91.144l20.893 11.47M332.99 496.297c-93.029-61.675-143.485-97.694-151.372-107.524 5.124 14.197 5.521 26.199 17.346 34.389 37.054 27.84 61.101 32.749 113.917 65.498l20.109 7.637M323.923 514.859c-89.086-43.122-137.572-68.224-145.851-75.871 5.912 12.014 7.882 22.376 19.315 28.383 35.872 19.65 57.554 21.289 108.014 43.122l18.522 4.366M351.125 556.342c-6.696.543-11.439-.543-16.954 3.269-24.831 17.466-46.909 40.94-76.472 63.859-4.727 3.823-9.068 3.823-14.98 6.006 11.825 2.183 19.712 2.726 29.96-2.726 9.067-4.367 15.371-8.19 22.072-16.38 18.527-19.095 29.172-29.469 48.884-47.478 2.758-2.727 4.721-3.824 7.49-6.55M329.052 553.615c-6.706 0-11.428-2.183-17.341 1.086-27.207 13.644-52.038 33.836-84.761 52.4-5.515 3.269-9.459 2.725-15.372 3.823 11.037 3.812 18.923 5.452 29.96 1.629 9.459-3.27 16.161-5.996 24.047-13.1 20.893-16.369 32.718-25.102 54.797-40.385 3.154-2.183 5.118-3.269 8.67-5.453M306.582 550.878c-6.701-1.086-11.042-3.27-17.346-1.629-28.779 9.819-56.368 26.199-91.06 40.385-5.913 2.184-9.856 1.641-16.161 1.641 10.64 5.452 18.13 8.178 29.563 5.996 9.857-2.184 16.949-3.814 25.625-9.82 22.862-13.1 36.264-20.193 59.915-32.206 3.541-1.63 5.912-2.726 9.464-4.367" transform="translate(-100.023 -139.891)"/><path style="fill:#c6ae43;stroke:none" d="m257.309 155.121-2.366-7.647h-3.944l5.913 7.647zM247.056 201.513h-2.361l-1.185 4.909h2.763l-1.186 4.911h5.912l1.187-4.911h9.062l1.185 4.911h5.913l-10.645-53.486zm6.31 0 3.943-19.65 3.15 19.65zM122.495 197.69v6.006c-.789 2.183-1.974 3.27-3.552 3.27-1.969 0-3.149-1.087-3.938-3.813 0-.554-.397-2.737-.397-5.463v-38.746h-5.516v40.386c0 8.733 3.15 12.556 9.851 12.556 3.155 0 5.521-1.097 7.098-3.28 1.578-1.64 1.97-4.367 1.97-7.636v-42.026h-5.516zM132.346 211.333h5.521v-6.55h-5.521zM151.666 180.767c-1.577-2.727-2.763-5.453-2.763-7.094 0-4.909 3.155-8.179 9.067-10.362l-1.18-5.464c-9.067 3.281-13.799 8.19-13.799 16.37 0 2.183 1.185 5.463 2.758 8.733l5.128 7.646c1.573 2.727 2.361 4.91 2.361 6.55 0 4.91-2.758 8.19-9.062 10.374l1.969 4.909c4.335-1.64 7.49-3.28 9.46-5.463 2.762-2.183 4.334-5.453 4.334-9.276 0-2.727-1.18-5.454-2.757-8.733-1.97-2.727-3.547-5.453-5.516-8.19zM165.069 211.333h5.516v-6.55h-5.516zM190.296 206.966c-5.521 0-8.278-4.91-8.278-15.283v-10.916c0-4.367.392-7.637 1.577-10.917 1.577-4.356 3.938-5.996 7.093-5.996h2.366l1.181-4.91c-1.181-.553-2.758-.553-3.939-.553-5.521 0-9.464 3.28-11.825 8.733-1.974 4.366-2.763 9.83-2.763 15.826 0 19.649 4.732 28.936 14.191 28.936 1.186 0 2.758 0 4.733-.553l-1.578-4.911c-.788.544-1.969.544-2.758.544zM199.755 211.333h5.521v-52.389h-5.521zM209.215 163.311h5.912v48.022h5.521v-48.022h4.732v-4.367H210.4ZM226.561 163.311h5.912v48.022h5.521v-48.022h4.727v-4.367h-14.98zM284.506 158.944h-4.335v52.389h6.309c5.516 0 9.063-1.63 11.429-4.911 1.974-2.726 2.752-7.092 2.752-12.556V178.04c0-6.55-.778-11.459-2.752-14.186-2.366-3.28-7.093-4.91-13.403-4.91zm10.248 37.659c0 3.27-.392 5.453-1.18 7.093-1.181 2.183-3.155 2.726-5.913 2.726h-1.578v-42.568c3.944 0 6.31 1.64 7.491 3.823.788 1.63 1.18 4.91 1.18 9.277zM306.186 211.333h5.527v-52.389h-5.527zM345.214 174.217c0-5.453-1.18-9.276-3.552-11.46-2.36-2.726-6.299-3.813-11.825-3.813h-4.732v52.389h6.31v-22.376c4.732 0 8.67-1.087 10.645-3.27 2.371-2.737 3.154-6.55 3.154-11.47zm-7.093 7.103c-1.19 1.63-3.154 2.726-6.31 2.726h-.396v-20.735c3.154 0 5.516 1.086 6.706 3.27 1.181 1.639 1.568 3.823 1.568 7.636 0 3.28-.387 5.463-1.568 7.103zM354.281 157.847l-10.247 43.666h-2.372l-1.18 4.909h2.758l-1.18 4.911h5.912l1.18-4.911h8.671l1.191 4.911h5.913l-10.259-53.486zm-4.335 43.666 4.335-19.65 2.758 19.65zM375.56 158.944h-5.515v52.389h13.402v-4.911h-7.887zM393.299 163.311h7.5l-1.588-4.367h-11.825v25.646h-2.758v4.91h2.758v21.833l13.413 1.096v-5.463h-7.5V189.5h8.283v-4.91h-8.283zM426.81 175.857c0-11.46-4.722-16.913-13.789-16.913h-5.913v52.389h5.913v-47.479h.784c4.731 0 7.092 3.823 7.092 12.003 0 7.647-1.963 12.013-5.913 13.1l7.104 22.929 5.515-1.64-5.912-19.65c3.541-3.823 5.119-8.733 5.119-14.739zM445.738 188.957l-8.68-31.11-6.697 53.486h5.913l3.155-25.103 6.696 22.919 5.526-22.919 3.541 25.103h5.527l-6.707-53.486zM476.085 158.391c-4.335 0-7.49 2.737-9.454 7.103-1.588 3.813-2.371 8.179-2.371 12.546v14.74c0 4.366.783 8.733 2.371 12.556 1.964 4.367 5.119 6.55 9.454 6.55 8.284 0 12.608-7.103 12.608-21.29v-9.829c0-14.73-4.324-22.376-12.608-22.376zm5.913 35.475c0 2.737 0 5.464-.784 7.647-1.191 3.823-2.758 5.453-5.129 5.453-1.975 0-3.541-1.63-4.732-4.367-.794-2.726-1.18-4.909-1.18-7.636v-17.466c0-9.277 1.974-13.643 5.912-13.643 3.938 0 5.913 4.366 5.913 12.546z" transform="translate(-100.023 -139.891)"/></svg>